ModelForces
version=1
nRows=4
nColumns=206
inDegrees=no

This file contains the forces exerted on a model during a simulation.

A force is a generalized force, meaning that it can be either a force (N) or a torque (Nm).

Units are S.I. units (second, meters, Newtons, ...)
Angles are in degrees.

endheader
time	glut_med1_r	glut_med2_r	glut_med3_r	glut_min1_r	glut_min2_r	glut_min3_r	semimem_r	semiten_r	bifemlh_r	bifemsh_r	sar_r	add_long_r	add_brev_r	add_mag1_r	add_mag2_r	add_mag3_r	tfl_r	pect_r	grac_r	glut_max1_r	glut_max2_r	glut_max3_r	iliacus_r	psoas_r	quad_fem_r	gem_r	peri_r	rect_fem_r	vas_med_r	vas_int_r	vas_lat_r	med_gas_r	lat_gas_r	soleus_r	tib_post_r	flex_dig_r	flex_hal_r	tib_ant_r	per_brev_r	per_long_r	per_tert_r	ext_dig_r	ext_hal_r	glut_med1_l	glut_med2_l	glut_med3_l	glut_min1_l	glut_min2_l	glut_min3_l	semimem_l	semiten_l	bifemlh_l	bifemsh_l	sar_l	add_long_l	add_brev_l	add_mag1_l	add_mag2_l	add_mag3_l	tfl_l	pect_l	grac_l	glut_max1_l	glut_max2_l	glut_max3_l	iliacus_l	psoas_l	quad_fem_l	gem_l	peri_l	rect_fem_l	vas_med_l	vas_int_l	vas_lat_l	med_gas_l	lat_gas_l	soleus_l	tib_post_l	flex_dig_l	flex_hal_l	tib_ant_l	per_brev_l	per_long_l	per_tert_l	ext_dig_l	ext_hal_l	ercspn_r	ercspn_l	intobl_r	intobl_l	extobl_r	extobl_l	femur_lat_meniscii_l.femur_lat_l.force.X	femur_lat_meniscii_l.femur_lat_l.force.Y	femur_lat_meniscii_l.femur_lat_l.force.Z	femur_lat_meniscii_l.femur_lat_l.torque.X	femur_lat_meniscii_l.femur_lat_l.torque.Y	femur_lat_meniscii_l.femur_lat_l.torque.Z	femur_lat_meniscii_l.meniscus_lat_l.force.X	femur_lat_meniscii_l.meniscus_lat_l.force.Y	femur_lat_meniscii_l.meniscus_lat_l.force.Z	femur_lat_meniscii_l.meniscus_lat_l.torque.X	femur_lat_meniscii_l.meniscus_lat_l.torque.Y	femur_lat_meniscii_l.meniscus_lat_l.torque.Z	femur_med_meniscii_l.femur_med_l.force.X	femur_med_meniscii_l.femur_med_l.force.Y	femur_med_meniscii_l.femur_med_l.force.Z	femur_med_meniscii_l.femur_med_l.torque.X	femur_med_meniscii_l.femur_med_l.torque.Y	femur_med_meniscii_l.femur_med_l.torque.Z	femur_med_meniscii_l.meniscus_med_l.force.X	femur_med_meniscii_l.meniscus_med_l.force.Y	femur_med_meniscii_l.meniscus_med_l.force.Z	femur_med_meniscii_l.meniscus_med_l.torque.X	femur_med_meniscii_l.meniscus_med_l.torque.Y	femur_med_meniscii_l.meniscus_med_l.torque.Z	femur_lat_meniscii_r.femur_lat_r.force.X	femur_lat_meniscii_r.femur_lat_r.force.Y	femur_lat_meniscii_r.femur_lat_r.force.Z	femur_lat_meniscii_r.femur_lat_r.torque.X	femur_lat_meniscii_r.femur_lat_r.torque.Y	femur_lat_meniscii_r.femur_lat_r.torque.Z	femur_lat_meniscii_r.meniscus_lat_r.force.X	femur_lat_meniscii_r.meniscus_lat_r.force.Y	femur_lat_meniscii_r.meniscus_lat_r.force.Z	femur_lat_meniscii_r.meniscus_lat_r.torque.X	femur_lat_meniscii_r.meniscus_lat_r.torque.Y	femur_lat_meniscii_r.meniscus_lat_r.torque.Z	femur_med_meniscii_r.femur_med_r.force.X	femur_med_meniscii_r.femur_med_r.force.Y	femur_med_meniscii_r.femur_med_r.force.Z	femur_med_meniscii_r.femur_med_r.torque.X	femur_med_meniscii_r.femur_med_r.torque.Y	femur_med_meniscii_r.femur_med_r.torque.Z	femur_med_meniscii_r.meniscus_med_r.force.X	femur_med_meniscii_r.meniscus_med_r.force.Y	femur_med_meniscii_r.meniscus_med_r.force.Z	femur_med_meniscii_r.meniscus_med_r.torque.X	femur_med_meniscii_r.meniscus_med_r.torque.Y	femur_med_meniscii_r.meniscus_med_r.torque.Z	femur_med_tibia_l.tibia_upper_l.force.X	femur_med_tibia_l.tibia_upper_l.force.Y	femur_med_tibia_l.tibia_upper_l.force.Z	femur_med_tibia_l.tibia_upper_l.torque.X	femur_med_tibia_l.tibia_upper_l.torque.Y	femur_med_tibia_l.tibia_upper_l.torque.Z	femur_med_tibia_l.femur_med_l.force.X	femur_med_tibia_l.femur_med_l.force.Y	femur_med_tibia_l.femur_med_l.force.Z	femur_med_tibia_l.femur_med_l.torque.X	femur_med_tibia_l.femur_med_l.torque.Y	femur_med_tibia_l.femur_med_l.torque.Z	femur_lat_tibia_l.tibia_upper_l.force.X	femur_lat_tibia_l.tibia_upper_l.force.Y	femur_lat_tibia_l.tibia_upper_l.force.Z	femur_lat_tibia_l.tibia_upper_l.torque.X	femur_lat_tibia_l.tibia_upper_l.torque.Y	femur_lat_tibia_l.tibia_upper_l.torque.Z	femur_lat_tibia_l.femur_lat_l.force.X	femur_lat_tibia_l.femur_lat_l.force.Y	femur_lat_tibia_l.femur_lat_l.force.Z	femur_lat_tibia_l.femur_lat_l.torque.X	femur_lat_tibia_l.femur_lat_l.torque.Y	femur_lat_tibia_l.femur_lat_l.torque.Z	femur_med_tibia_r.tibia_upper_r.force.X	femur_med_tibia_r.tibia_upper_r.force.Y	femur_med_tibia_r.tibia_upper_r.force.Z	femur_med_tibia_r.tibia_upper_r.torque.X	femur_med_tibia_r.tibia_upper_r.torque.Y	femur_med_tibia_r.tibia_upper_r.torque.Z	femur_med_tibia_r.femur_med_r.force.X	femur_med_tibia_r.femur_med_r.force.Y	femur_med_tibia_r.femur_med_r.force.Z	femur_med_tibia_r.femur_med_r.torque.X	femur_med_tibia_r.femur_med_r.torque.Y	femur_med_tibia_r.femur_med_r.torque.Z	femur_lat_tibia_r.tibia_upper_r.force.X	femur_lat_tibia_r.tibia_upper_r.force.Y	femur_lat_tibia_r.tibia_upper_r.force.Z	femur_lat_tibia_r.tibia_upper_r.torque.X	femur_lat_tibia_r.tibia_upper_r.torque.Y	femur_lat_tibia_r.tibia_upper_r.torque.Z	femur_lat_tibia_r.femur_lat_r.force.X	femur_lat_tibia_r.femur_lat_r.force.Y	femur_lat_tibia_r.femur_lat_r.force.Z	femur_lat_tibia_r.femur_lat_r.torque.X	femur_lat_tibia_r.femur_lat_r.torque.Y	femur_lat_tibia_r.femur_lat_r.torque.Z	aACL_R	pACL_R	aPCL_R	pPCL_R	aMCL_R	mMCL_R	pMCL_R	aLCL_R	mLCL_R	pLCL_R	aPCL_L	pPCL_L	aMCL_L	aLCL_L	ground_prescribedForce_-40_fx	ground_prescribedForce_-40_fy	ground_prescribedForce_-40_fz
      0.00000000	     37.48087652	     28.28714471	     30.25598133	     13.28977762	     14.47626353	     15.91713841	     11.98790235	     18.70110302	     24.30217463	     31.23024674	      7.47723940	     27.93927808	     20.68957741	     14.51222487	     12.16230296	     19.66717628	     12.33178055	     11.16605282	      7.37138413	     18.12681708	     27.55933735	     20.56469162	     63.94906620	     55.74758807	     18.09791099	      9.16719286	     20.03897647	     58.22525404	     52.24775257	     55.17168286	     73.96063116	     33.86228074	     19.79832152	    152.72720615	     92.44658902	     14.93332009	     15.26895791	     41.82851940	     21.62523106	     46.40594865	      8.86060096	     25.04818486	      7.96045570	     37.48087652	     28.28714471	     30.25598133	     13.28977762	     14.47626353	     15.91713841	     42.06683902	     20.39635155	     37.67631238	     36.01822118	      7.59254209	     27.93927808	     20.68957741	     14.51222487	     12.16230296	     19.66717628	     12.58139899	     11.16605282	      7.78214370	     18.12681708	     27.55933735	     20.56469162	     63.94906620	     55.74758807	     18.09791099	      9.16719286	     20.03897647	     52.59637061	     32.48786114	     37.22481259	     39.87514307	     67.71424671	     31.64857027	    152.72720615	     92.44658902	     14.93332009	     15.26895791	     41.82851940	     21.62523106	     46.40594865	      8.86060096	     25.04818486	      7.96045570	    124.99446086	    124.99446086	     44.97041513	     44.97041513	     60.98287244	     60.98287244	      2.76307435	     50.99597937	     -9.56042239	      5.21997485	     -0.02578839	      1.48581788	     -2.76307435	    -50.99597937	      9.56042239	     -1.74637766	      0.02558040	     -0.48301696	     -3.31599387	     20.97615968	     -3.40468921	      0.94473225	     -0.02138609	     -1.00501789	      3.31599387	    -20.97615968	      3.40468921	      0.28075727	      0.00368718	     -0.29758878	   4361.14951753	   3256.22418746	    366.96878907	   -230.87116080	    110.68083947	   1785.96754951	  -4361.14951753	  -3256.22418746	   -366.96878907	    103.72199794	   -132.92250164	    -77.53793024	     32.61272950	    123.88575831	     15.31100037	     -3.52639765	     -0.87096729	     14.56358720	    -32.61272950	   -123.88575831	    -15.31100037	     -1.82692302	      0.54530937	     -0.52591677	      0.00000000	      0.00000000	      0.00000000	      0.00000000	      0.00000000	      0.00000000	      0.00000000	      0.00000000	      0.00000000	      0.00000000	      0.00000000	      0.00000000	      0.00000000	      0.00000000	      0.00000000	      0.00000000	      0.00000000	      0.00000000	      0.00000000	      0.00000000	      0.00000000	      0.00000000	      0.00000000	      0.00000000	   -229.42567590	   -280.56592644	    133.34316248	     -7.74088033	      4.43770756	     -4.07636244	    229.42567590	    280.56592644	   -133.34316248	     59.84573990	     -3.67234171	     95.33659638	      0.00000000	      0.00000000	      0.00000000	      0.00000000	      0.00000000	      0.00000000	      0.00000000	      0.00000000	      0.00000000	      0.00000000	      0.00000000	      0.00000000	      0.00000000	      0.00000000	    401.41024958	    299.68313598	      0.00000000	      0.12057661	      0.00000000	      0.00000000	      0.00000000	      0.00000000	      0.00000000	      0.00000000	      0.00000001	      0.00000000	     84.26488000	    -70.70660000	      0.00000000
      0.00017606	     37.48055922	     28.28660923	     30.25550528	     13.28910321	     14.47589688	     15.91699703	     12.08783534	     18.80681800	     24.43753101	     31.97668925	      7.60711356	     27.93884575	     20.68796628	     14.51195327	     12.16214159	     19.66704464	     12.39712443	     11.16563525	      7.46624843	     18.12653286	     27.55891222	     20.56442555	     63.94833475	     55.74717035	     18.09742388	      9.16712767	     20.03891972	     58.49274701	     52.70818162	     55.68587637	     74.46880844	     34.22055340	     19.99716427	    153.17408855	     92.52534537	     14.94139591	     15.28031227	     41.72102079	     21.61449297	     46.40433243	      8.81563011	     25.00455135	      7.94650558	     37.48055922	     28.28660923	     30.25550528	     13.28910321	     14.47589688	     15.91699703	     42.06669848	     20.39616005	     37.67615527	     36.01728189	      7.59207823	     27.93884575	     20.68796628	     14.51195327	     12.16214159	     19.66704464	     12.58136613	     11.16563525	      7.78188448	     18.12653286	     27.55891222	     20.56442555	     63.94833475	     55.74717035	     18.09742388	      9.16712767	     20.03891972	     52.59613253	     32.48751196	     37.22446702	     39.87479160	     67.71410867	     31.64850460	    152.72677633	     92.44648088	     14.93334206	     15.26897276	     41.82829498	     21.62515074	     46.40586864	      8.86051536	     25.04803222	      7.96039442	    124.98859921	    124.98859921	     44.96988159	     44.96988159	     60.98229444	     60.98229444	      2.76307435	     50.99597937	     -9.56042239	      5.21997485	     -0.02578839	      1.48581788	     -2.76307435	    -50.99597937	      9.56042239	     -1.74637766	      0.02558040	     -0.48301696	     -3.31599387	     20.97615968	     -3.40468921	      0.94473225	     -0.02138609	     -1.00501789	      3.31599387	    -20.97615968	      3.40468921	      0.28075727	      0.00368718	     -0.29758878	   2453.10022053	   1742.42782688	    478.09340811	   -240.07940067	     64.94905351	   1006.04269676	  -2453.10022053	  -1742.42782688	   -478.09340811	     64.33890394	    -80.89602724	    -46.19783323	     -1.46306950	     82.92193033	     15.62241237	     -4.64394170	     -0.05096437	     -0.17222118	      1.46306950	    -82.92193033	    -15.62241237	     -0.99387814	     -0.14106419	      0.66349339	      0.00000000	      0.00000000	      0.00000000	      0.00000000	      0.00000000	      0.00000000	      0.00000000	      0.00000000	      0.00000000	      0.00000000	      0.00000000	      0.00000000	      0.00000000	      0.00000000	      0.00000000	      0.00000000	      0.00000000	      0.00000000	      0.00000000	      0.00000000	      0.00000000	      0.00000000	      0.00000000	      0.00000000	   -157.95338494	   -243.35408012	    153.67292579	     -8.13686096	      4.07857536	     -1.98843297	    157.95338494	    243.35408012	   -153.67292579	     67.86392607	     -2.76842499	     65.45389050	      0.00000000	      0.00000000	      0.00000000	      0.00000000	      0.00000000	      0.00000000	      0.00000000	      0.00000000	      0.00000000	      0.00000000	      0.00000000	      0.00000000	      0.00000000	      0.00000000	    444.29962041	    407.46729299	      0.00000000	     84.88974432	      0.00000000	      0.00000000	      0.00000000	      0.00000000	      0.00000000	      0.00000000	      0.00000001	      0.00000000	     84.26488000	    -70.70660000	      0.00000000
      0.00035212	     37.47960849	     28.28501221	     30.25408348	     13.28712039	     14.47480675	     15.91657349	     12.31328242	     19.04570943	     24.73772385	     33.64058119	      7.89386754	     27.93755444	     20.68328738	     14.51114320	     12.16165913	     19.66664989	     12.54335636	     11.16440034	      7.67746781	     18.12568398	     27.55764239	     20.56362991	     63.94614850	     55.74591828	     18.09597633	      9.16693232	     20.03874927	     59.09675462	     53.78231323	     56.87639324	     75.65637387	     35.00455788	     20.43295909	    154.10583302	     92.69414921	     14.96038487	     15.30598232	     41.50159786	     21.58858782	     46.39744771	      8.72207295	     24.91090589	      7.91667562	     37.47960849	     28.28501221	     30.25408348	     13.28712039	     14.47480675	     15.91657349	     42.06627641	     20.39558645	     37.67568365	     36.01448956	      7.59072080	     27.93755444	     20.68328738	     14.51114320	     12.16165913	     19.66664989	     12.58126741	     11.16440034	      7.78111638	     18.12568398	     27.55764239	     20.56362991	     63.94614850	     55.74591828	     18.09597633	      9.16693232	     20.03874927	     52.59541792	     32.48646677	     37.22343199	     39.87373870	     67.71369390	     31.64830729	    152.72548529	     92.44615587	     14.93340780	     15.26901711	     41.82762160	     21.62490954	     46.40562816	      8.86025903	     25.04757435	      7.96021065	    124.97133555	    124.97133555	     44.96828531	     44.96828531	     60.98056632	     60.98056632	      2.76307435	     50.99597937	     -9.56042239	      5.21997485	     -0.02578839	      1.48581788	     -2.76307435	    -50.99597937	      9.56042239	     -1.74637766	      0.02558040	     -0.48301696	     -3.31599387	     20.97615968	     -3.40468921	      0.94473225	     -0.02138609	     -1.00501789	      3.31599387	    -20.97615968	      3.40468921	      0.28075727	      0.00368718	     -0.29758878	   1639.35981029	   1147.31760697	    372.75071734	   -181.81518477	     43.90666672	    672.84463924	  -1639.35981029	  -1147.31760697	   -372.75071734	     43.93750570	    -55.22785889	    -31.61145632	     -5.55769325	     50.67017353	      9.49706995	     -2.81093216	      0.08142106	     -2.09609089	      5.55769325	    -50.67017353	     -9.49706995	     -0.61556903	     -0.17915075	      0.61232143	      0.00000000	      0.00000000	      0.00000000	      0.00000000	      0.00000000	      0.00000000	      0.00000000	      0.00000000	      0.00000000	      0.00000000	      0.00000000	      0.00000000	      0.00000000	      0.00000000	      0.00000000	      0.00000000	      0.00000000	      0.00000000	      0.00000000	      0.00000000	      0.00000000	      0.00000000	      0.00000000	      0.00000000	   -122.79431281	   -203.63489568	    155.89317001	     -7.81335548	      3.76652711	     -1.30198788	    122.79431281	    203.63489568	   -155.89317001	     68.23133712	     -2.28951082	     50.82151843	      0.00000000	      0.00000000	      0.00000000	      0.00000000	      0.00000000	      0.00000000	      0.00000000	      0.00000000	      0.00000000	      0.00000000	      0.00000000	      0.00000000	      0.00000000	      0.00000000	    465.71976134	    455.35289550	      0.00000000	    122.78700282	      0.00000000	      0.00000000	      0.00000000	      0.00000000	      0.00000000	      0.00000000	      0.00000001	      0.00000000	     84.26488000	    -70.70660000	      0.00000000
      0.00050456	     37.47827515	     28.28278318	     30.25209609	     13.28439286	     14.47329003	     15.91597960	     12.55943992	     19.30740504	     25.06440480	     35.45643120	      8.19811859	     27.93574927	     20.67693052	     14.51001247	     12.16098401	     19.66609583	     12.70231148	     11.16269127	      7.90546027	     18.12449744	     27.55586723	     20.56251637	     63.94309017	     55.74416170	     18.09396330	      9.16665831	     20.03850961	     59.75954328	     54.98552825	     58.20498705	     76.98847080	     35.84078707	     20.89957957	    155.04030242	     92.87457951	     14.98292603	     15.33492583	     41.29076863	     21.55432431	     46.38232268	      8.62711679	     24.81308276	      7.88603019	     37.47827515	     28.28278318	     30.25209609	     13.28439286	     14.47329003	     15.91597960	     42.06568312	     20.39478234	     37.67502095	     36.01060492	      7.58886237	     27.93574927	     20.67693052	     14.51001247	     12.16098401	     19.66609583	     12.58112862	     11.16269127	      7.78005133	     18.12449744	     27.55586723	     20.56251637	     63.94309017	     55.74416170	     18.09396330	      9.16665831	     20.03850961	     52.59441391	     32.48500255	     37.22198101	     39.87226238	     67.71311049	     31.64802975	    152.72367001	     92.44569863	     14.93349987	     15.26907908	     41.82667590	     21.62457054	     46.40528986	      8.85989977	     25.04693152	      7.95995276	    124.94754603	    124.94754603	     44.96605006	     44.96605006	     60.97814815	     60.97814815	      2.76307435	     50.99597937	     -9.56042239	      5.21997485	     -0.02578839	      1.48581788	     -2.76307435	    -50.99597937	      9.56042239	     -1.74637766	      0.02558040	     -0.48301696	     -3.31599387	     20.97615968	     -3.40468921	      0.94473225	     -0.02138609	     -1.00501789	      3.31599387	    -20.97615968	      3.40468921	      0.28075727	      0.00368718	     -0.29758878	   1397.72173897	    894.12127431	    300.00684294	   -145.51997168	     37.02610224	    574.25889200	  -1397.72173897	   -894.12127431	   -300.00684294	     34.42526923	    -46.44553907	    -28.59933986	     -3.79802854	     30.55219053	      5.80449949	     -1.72184586	      0.06044098	     -1.45930969	      3.79802854	    -30.55219053	     -5.80449949	     -0.37420814	     -0.11843241	      0.39304933	      0.00000000	      0.00000000	      0.00000000	      0.00000000	      0.00000000	      0.00000000	      0.00000000	      0.00000000	      0.00000000	      0.00000000	      0.00000000	      0.00000000	      0.00000000	      0.00000000	      0.00000000	      0.00000000	      0.00000000	      0.00000000	      0.00000000	      0.00000000	      0.00000000	      0.00000000	      0.00000000	      0.00000000	   -102.39069198	   -174.26013840	    146.18819782	     -7.14329688	      3.40276682	     -1.00313234	    102.39069198	    174.26013840	   -146.18819782	     63.73526166	     -1.96937292	     42.34897246	      0.00000000	      0.00000000	      0.00000000	      0.00000000	      0.00000000	      0.00000000	      0.00000000	      0.00000000	      0.00000000	      0.00000000	      0.00000000	      0.00000000	      0.00000000	      0.00000000	    477.71536680	    478.40458507	      0.00000000	    139.17791821	      0.00000000	      0.00000000	      0.00000000	      0.00000000	      0.00000000	      0.00000000	      0.00000001	      0.00000000	     84.26488000	    -70.70660000	      0.00000000
